<?xml version="1.0" encoding="UTF-8"?>
<svg id="_레이어_1" data-name="레이어_1" xmlns="http://www.w3.org/2000/svg" xmlns:xlink="http://www.w3.org/1999/xlink" version="1.1" viewBox="0 0 42 42">
  <!-- Generator: Adobe Illustrator 29.1.0, SVG Export Plug-In . SVG Version: 2.1.0 Build 142)  -->
  <defs>
    <style>
      .st0 {
        fill: url(#_무제_그라디언트_6);
      }

      .st1 {
        fill: #fff;
      }
    </style>
    <linearGradient id="_무제_그라디언트_6" data-name="무제 그라디언트 6" x1="21" y1="42" x2="21" y2="0" gradientUnits="userSpaceOnUse">
      <stop offset="0" stop-color="#0066e2"/>
      <stop offset="1" stop-color="#0081fb"/>
    </linearGradient>
  </defs>
  <rect class="st0" x="0" y="0" width="42" height="42" rx="8" ry="8"/>
  <path class="st1" d="M33.1,15.3c-1.5-2.2-3.5-3.4-5.5-3.4s-2.4.5-3.6,1.5c-.8.7-1.5,1.5-2.1,2.4-.8-1-1.6-1.8-2.3-2.4-1.4-1.1-2.7-1.5-4.1-1.5-2.3,0-4.3,1.5-5.7,3.7-1.6,2.4-2.4,5.6-2.4,8.6s.3,3.1,1,4.2c.8,1.4,2.1,2.3,4.2,2.3s3.1-.8,4.6-2.9c.9-1.2,1.3-1.9,3.1-5.1l.9-1.6c0-.1.1-.3.2-.4,0,.1.1.2.2.4l2.5,4.2c.8,1.4,2,3,2.9,3.9,1.2,1.2,2.3,1.4,3.6,1.4,2,0,3.2-1.1,3.8-2.1.6-1.1,1-2.5,1-4.4,0-3.2-.8-6.3-2.4-8.7ZM18.8,20.3c-.9,1.4-2.2,3.5-3.3,5.1-1.4,1.9-2.1,2.1-2.9,2.1s-1.2-.3-1.6-.9c-.3-.5-.5-1.3-.5-2.4,0-2.6.7-5.3,1.9-7.1.9-1.3,1.9-2.1,3.1-2.1s2.4.9,3.1,1.7c.4.4.9,1,1.4,1.9l-1.2,1.8ZM30.7,27.5c-.7,0-1.2-.3-2-1.2-.6-.7-1.6-2.2-3.3-5.1l-.7-1.2c-.5-.9-1-1.6-1.5-2.3,0-.1.2-.3.2-.4,1.3-2,2.5-3.1,3.9-3.1s2.6.9,3.5,2.3c1.3,2.1,1.9,4.9,1.9,7.5s-.4,3.4-2.2,3.4Z"/>
</svg>