<?xml version="1.0" encoding="UTF-8"?>
<svg xmlns="http://www.w3.org/2000/svg" xmlns:xlink="http://www.w3.org/1999/xlink" version="1.1" viewBox="0 0 80 80">
  <defs>
    <style>
      .cls-1 {
        fill: url(#_무제_그라디언트_29);
      }

      .cls-2 {
        fill: #af7e71;
      }
    </style>
    <linearGradient id="_무제_그라디언트_29" data-name="무제 그라디언트 29" x1="40" y1="0" x2="40" y2="80" gradientUnits="userSpaceOnUse">
      <stop offset="0" stop-color="#632b0e"/>
      <stop offset=".3" stop-color="#935447"/>
      <stop offset=".6" stop-color="#fdd7d0"/>
      <stop offset="1" stop-color="#632b0e"/>
    </linearGradient>
  </defs>
  <!-- Generator: Adobe Illustrator 28.6.0, SVG Export Plug-In . SVG Version: 1.2.0 Build 709)  -->
  <g>
    <g id="_레이어_1" data-name="레이어_1">
      <g>
        <path class="cls-2" d="M13.1,61c0,1.1,1.7,2,4,2s4.3-.6,6.1-1.8c-2.9-.9-5.8-1.7-7.8-1.7s-2.3,1.1-2.3,1.5Z"/>
        <path class="cls-1" d="M40,0C17.9,0,0,17.9,0,40s17.9,40,40,40,40-17.9,40-40S62.1,0,40,0ZM59.7,27.3c-2.4,0-5.3-.7-7.5-1.9-.6-.3-.8-1.1-.5-1.7v-.3c.4-.4.8-.7,1.3-.7s.3,0,.5,0c1.7.7,4.1,1.1,6.5,1.1s7.7-.9,7.7-4.1-2.4-3.3-7.7-3.3c-8.2,0-12.6,10.4-17.2,21.5-3,7.1-6.1,14.5-10.5,19.9.8.3,1.7.5,2.5.8,3.7,1.1,7.1,2.2,9.2,2.2,4,0,4.8-.9,7.2-5.8.2-.4.7-.7,1.1-.7s.2,0,.3,0h.3c.4.2.7.4.8.7.2.3.2.7,0,1.1-3,6.4-5.1,9.4-11.7,9.4s-9.8-1.8-14.4-3.3c-3.2,2.3-6.4,3.3-10.2,3.3s-7-2-7-4.8,3-5.6,7.8-5.6,6.4.6,9.4,1.3c2.3-3.5,4.4-8.4,7.2-16,5.3-14.8,10.8-27,25.1-27s10.8,3.3,10.8,6.4-3.7,7.3-10.9,7.3Z"/>
      </g>
    </g>
  </g>
</svg>